<svg width="50" height="56" viewBox="0 0 50 56" fill="none" xmlns="http://www.w3.org/2000/svg">
<g clip-path="url(#clip0_39_89)">
<path fill-rule="evenodd" clip-rule="evenodd" d="M2.08333 0C0.93274 0 0 1.04467 0 2.33333C0 3.622 0.93274 4.66667 2.08333 4.66667H8.70899L10.4416 14.3618C10.4508 14.4282 10.4625 14.4937 10.4766 14.5581L13.9566 34.0312C14.2426 35.6418 15.0255 37.0905 16.1677 38.1203C17.3046 39.1453 18.7258 39.6923 20.1847 39.6667H40.3987C41.8575 39.6923 43.2787 39.1453 44.4157 38.1203C45.5583 37.0901 46.341 35.6426 46.6267 34.0312L46.6298 34.0138L49.9631 14.4371C50.0794 13.754 49.9176 13.0484 49.5219 12.5126C49.1261 11.9768 48.5376 11.6667 47.9167 11.6667H14.2092L12.4595 1.8754C12.2646 0.784899 11.4096 0 10.4167 0H2.08333ZM15.0432 16.3333H45.3985L42.5386 33.1296C42.4422 33.6637 42.182 34.1433 41.8029 34.4851C41.422 34.8285 40.9454 35.0109 40.4566 35.0004L40.4167 35H20.1667L20.1267 35.0004C19.6379 35.0109 19.1613 34.8285 18.7804 34.4851C18.3996 34.1417 18.1387 33.6592 18.0434 33.1221L15.0432 16.3333Z" fill="black"/>
<path d="M14.5833 49C14.5833 46.4227 16.4488 44.3333 18.75 44.3333C21.0512 44.3333 22.9167 46.4227 22.9167 49C22.9167 51.5773 21.0512 53.6667 18.75 53.6667C16.4488 53.6667 14.5833 51.5773 14.5833 49Z" fill="black"/>
<path d="M37.5 49C37.5 46.4227 39.3655 44.3333 41.6667 44.3333C43.9678 44.3333 45.8333 46.4227 45.8333 49C45.8333 51.5773 43.9678 53.6667 41.6667 53.6667C39.3655 53.6667 37.5 51.5773 37.5 49Z" fill="black"/>
</g>
<defs>
<clipPath id="clip0_39_89">
<rect width="50" height="56" fill="white"/>
</clipPath>
</defs>
</svg>
