<svg width="51" height="54" viewBox="0 0 51 54" fill="none" xmlns="http://www.w3.org/2000/svg">
<path fill-rule="evenodd" clip-rule="evenodd" d="M42.5 51.75L25.5 51.75C24.3264 51.75 23.375 50.7426 23.375 49.5C23.375 48.2574 24.3264 47.25 25.5 47.25L42.5 47.25C43.6736 47.25 44.625 46.2426 44.625 45L44.625 9C44.625 7.75736 43.6736 6.75 42.5 6.75L25.5 6.75C24.3264 6.75 23.375 5.74264 23.375 4.5C23.375 3.25737 24.3264 2.25 25.5 2.25L42.5 2.25C46.0208 2.25 48.875 5.27209 48.875 9L48.875 45C48.875 48.7279 46.0208 51.75 42.5 51.75Z" fill="#0F0F0F"/>
<path fill-rule="evenodd" clip-rule="evenodd" d="M39.7122 24.0528C41.0966 25.7442 41.0966 28.2558 39.7122 29.9471L30.8367 40.7905C28.26 43.9385 23.375 42.009 23.375 37.8433L23.375 33.75L10.625 33.75C8.27779 33.75 6.375 31.7352 6.375 29.25L6.375 24.75C6.375 22.2647 8.27779 20.25 10.625 20.25L23.375 20.25L23.375 16.1566C23.375 11.9909 28.26 10.0615 30.8367 13.2094L39.7122 24.0528ZM35.2943 28.4736C35.9865 27.6279 35.9865 26.3721 35.2943 25.5264L27.625 16.1566L27.625 21.375C27.625 23.2389 26.1979 24.75 24.4375 24.75L10.625 24.75L10.625 29.25L24.4375 29.25C26.1979 29.25 27.625 30.761 27.625 32.625L27.625 37.8433L35.2943 28.4736Z" fill="#0F0F0F"/>
</svg>
