<svg width="38" height="48" viewBox="0 0 38 48" fill="none" xmlns="http://www.w3.org/2000/svg">
<path fill-rule="evenodd" clip-rule="evenodd" d="M19 0.666748C13.247 0.666748 8.58333 5.89009 8.58333 12.3334C8.58333 18.7767 13.247 24.0001 19 24.0001C24.753 24.0001 29.4167 18.7767 29.4167 12.3334C29.4167 5.89009 24.753 0.666748 19 0.666748ZM12.75 12.3334C12.75 8.46742 15.5482 5.33341 19 5.33341C22.4518 5.33341 25.25 8.46742 25.25 12.3334C25.25 16.1994 22.4518 19.3334 19 19.3334C15.5482 19.3334 12.75 16.1994 12.75 12.3334Z" fill="black"/>
<path d="M10.6667 28.6667C7.90399 28.6667 5.25447 29.8959 3.30097 32.0838C1.34747 34.2718 0.25 37.2392 0.25 40.3334V45.0001C0.25 46.2887 1.18274 47.3334 2.33333 47.3334C3.48393 47.3334 4.41667 46.2887 4.41667 45.0001V40.3334C4.41667 38.4769 5.07515 36.6964 6.24725 35.3837C7.41935 34.0709 9.00906 33.3334 10.6667 33.3334H27.3333C28.9909 33.3334 30.5806 34.0709 31.7527 35.3837C32.9249 36.6964 33.5833 38.4769 33.5833 40.3334V45.0001C33.5833 46.2887 34.5161 47.3334 35.6667 47.3334C36.8173 47.3334 37.75 46.2887 37.75 45.0001V40.3334C37.75 37.2392 36.6525 34.2718 34.699 32.0838C32.7455 29.8959 30.096 28.6667 27.3333 28.6667H10.6667Z" fill="black"/>
</svg>
